<?xml version="1.0" standalone="no"?>
<!DOCTYPE svg PUBLIC "-//W3C//DTD SVG 1.1//EN" "http://www.w3.org/Graphics/SVG/1.1/DTD/svg11.dtd" >
<!--
2013-9-30: Created.
-->
<svg>
<metadata>
Created by iconfont
</metadata>
<defs>

<font id="iconfont" horiz-adv-x="1024" >
  <font-face
    font-family="iconfont"
    font-weight="500"
    font-stretch="normal"
    units-per-em="1024"
    ascent="896"
    descent="-128"
  />
    <missing-glyph />
    
    <glyph glyph-name="leibieguanli" unicode="&#58944;" d="M390.4 384 185.6 384C118.5 384 64 438.5 64 505.6L64 710.4C64 777.5 118.5 832 185.6 832l204.9 0c67 0 121.6-54.5 121.6-121.6l0-204.9C512 438.5 457.5 384 390.4 384zM185.6 768c-31.7 0-57.6-25.8-57.6-57.6l0-204.9c0-31.7 25.8-57.6 57.6-57.6l204.9 0c31.7 0 57.6 25.8 57.6 57.6L448.1 710.4c0 31.7-25.8 57.6-57.6 57.6L185.6 768zM902.4 384 697.6 384c-67 0-121.6 54.5-121.6 121.6L576 710.4c0 67 54.5 121.6 121.6 121.6l204.9 0c67 0 121.6-54.5 121.6-121.6l0-204.9C1024 438.5 969.5 384 902.4 384zM697.6 768c-31.7 0-57.6-25.8-57.6-57.6l0-204.9c0-31.7 25.8-57.6 57.6-57.6l204.9 0c31.7 0 57.6 25.8 57.6 57.6L960.1 710.4c0 31.7-25.8 57.6-57.6 57.6L697.6 768zM390.4-128 185.6-128c-67 0-121.6 54.5-121.6 121.6L64 198.4c0 67 54.5 121.6 121.6 121.6l204.9 0c67 0 121.6-54.5 121.6-121.6l0-204.9C512-73.5 457.5-128 390.4-128zM185.6 256c-31.7 0-57.6-25.8-57.6-57.6l0-204.9c0-31.7 25.8-57.6 57.6-57.6l204.9 0c31.7 0 57.6 25.8 57.6 57.6L448.1 198.4c0 31.7-25.8 57.6-57.6 57.6L185.6 256zM902.4-128 697.6-128c-67 0-121.6 54.5-121.6 121.6L576 198.4c0 67 54.5 121.6 121.6 121.6l204.9 0c67 0 121.6-54.5 121.6-121.6l0-204.9C1024-73.5 969.5-128 902.4-128zM697.6 256c-31.7 0-57.6-25.8-57.6-57.6l0-204.9c0-31.7 25.8-57.6 57.6-57.6l204.9 0c31.7 0 57.6 25.8 57.6 57.6L960.1 198.4c0 31.7-25.8 57.6-57.6 57.6L697.6 256z"  horiz-adv-x="1025" />

    
    <glyph glyph-name="close" unicode="&#58987;" d="M517.12-48.64c-236.11392 0-427.52 191.40608-427.52 427.52 0 236.11392 191.40608 427.52 427.52 427.52 236.11392 0 427.52-191.40608 427.52-427.52C944.64 142.76608 753.23392-48.64 517.12-48.64zM517.12 752.95744c-206.59712 0-374.08256-167.48544-374.08256-374.08256S310.52288 4.79744 517.12 4.79744c206.60224 0 374.08256 167.48544 374.08256 374.08256S723.72224 752.95744 517.12 752.95744zM555.06432 378.73152l113.2032-113.2032c10.42432-10.42944 10.42432-27.3664 0-37.79584-10.43456-10.42944-27.35104-10.42944-37.79584 0l-113.2032 113.20832-113.99168-113.9712c-10.51648-10.5216-27.5712-10.5216-38.07744 0-10.51648 10.5216-10.51648 27.5712 0 38.07744l113.98144 113.98144L365.97248 492.24704c-10.43456 10.42944-10.43456 27.35104 0 37.78048 10.43456 10.43968 27.34592 10.43968 37.79072 0l113.21344-113.20832 114.82112 114.82112c10.51648 10.5216 27.5712 10.5216 38.08256 0 10.51648-10.51136 10.51648-27.5712 0-38.08256L555.06432 378.73152z"  horiz-adv-x="1024" />

    
    <glyph glyph-name="icon_logout" unicode="&#58926;" d="M737.024 685.792c-3.712-0.192-4.672-0.128-8.352-0.672-6.912-1.056-13.632-3.2-19.84-6.4-6.208-3.2-11.872-7.424-16.736-12.448-3.872-4-7.232-8.544-9.952-13.408-8.16-14.752-10.208-32.48-5.568-48.672 2.304-8.064 6.208-15.648 11.424-22.208 2.336-2.912 3.040-3.52 5.632-6.208l3.104-2.816c13.856-11.712 26.688-24.512 38.176-38.56 27.968-34.176 47.904-74.624 57.792-117.664 8-34.944 9.376-71.36 4.16-106.816-5.408-36.768-17.92-72.416-36.8-104.416-14.656-24.8-33.056-47.296-54.368-66.656-20.704-18.784-44.096-34.592-69.344-46.688-27.392-13.12-56.864-21.824-87.008-25.696-34.368-4.448-69.504-2.656-103.232 5.248-35.2 8.224-68.768 23.104-98.432 43.712-31.968 22.24-59.296 51.040-79.968 84.032-21.248 33.888-35.232 72.192-40.832 111.808-6.176 43.488-2.272 88.256 11.296 130.016 10.496 32.32 26.752 62.72 47.872 89.376 9.792 12.384 20.672 23.808 32.288 34.496 3.936 3.52 7.936 6.912 11.84 10.432 2.592 2.688 3.296 3.296 5.6 6.208 5.216 6.592 9.088 14.176 11.392 22.24 2.272 8.064 2.976 16.576 1.984 24.896-0.8 6.944-2.752 13.728-5.76 20.032-2.976 6.304-7.008 12.128-11.872 17.12-11.744 12.096-28.128 19.168-44.992 19.424-5.568 0.096-11.168-0.576-16.576-1.92-6.784-1.728-13.248-4.544-19.136-8.32-5.216-3.392-9.856-7.616-14.496-11.744-6.624-5.856-13.088-11.936-19.328-18.208-25.568-25.664-47.776-54.72-65.824-86.144-30.848-53.76-49.376-114.336-53.984-176.128-4.64-61.888 4.672-124.64 27.264-182.432 15.84-40.512 38.112-78.432 65.664-112.064 26.56-32.448 57.984-60.896 92.992-83.968 39.392-25.952 83.2-45.056 128.992-56.352 53.376-13.152 109.248-15.648 163.584-7.296 50.4 7.744 99.264 24.832 143.456 50.24 41.216 23.712 78.368 54.528 109.248 90.656 25.536 29.856 46.784 63.328 62.912 99.136 31.52 70.080 43.072 148.608 33.248 224.768-5.856 45.312-19.232 89.6-39.488 130.56-16.768 33.888-38.176 65.472-63.456 93.6-10.112 11.264-20.864 21.888-32.096 32.064-3.296 2.912-6.656 5.824-10.016 8.672-2.912 2.336-3.584 2.976-6.72 4.992-5.888 3.776-12.384 6.592-19.136 8.288-4.128 1.024-8.224 1.472-12.416 1.824-1.408 0.032-2.784 0.032-4.192 0.064M576.032 320c0-16.96-6.752-33.248-18.752-45.248s-28.288-18.752-45.248-18.752c-16.992 0-33.248 6.752-45.248 18.752-12 12-18.752 28.288-18.752 45.248v448c0 16.992 6.752 33.248 18.752 45.28 12 12 28.256 18.72 45.248 18.72 16.96 0 33.248-6.72 45.248-18.72 12-12.032 18.752-28.288 18.752-45.28v-448z"  horiz-adv-x="1024" />

    
    <glyph glyph-name="icon-mima" unicode="&#58892;" d="M817.079812 505.95047H756.063133v81.339539c0 134.512576-109.475344 243.931638-244.062621 243.931639S267.93482 721.802586 267.93482 587.292056v-81.341586h-61.015655c-33.69952 0-61.016679-27.301809-61.016679-60.98291v-447.206298c0-33.679054 27.318182-60.98291 61.016679-60.98291h610.160647c33.69952 0 61.016679 27.302833 61.016679 60.98291V444.968583c0 33.680077-27.318182 60.981886-61.016679 60.981887z m-488.129336 81.341586c0 100.882642 82.109066 182.948729 183.049012 182.948729 100.939947 0 183.049013-82.066087 183.049013-182.948729v-81.341586h-366.098025v81.341586z m488.129336-589.530794H206.919165V444.968583h610.160647v-447.207321zM512.000512 109.553371c16.84362 0 30.507828 13.657045 30.507827 30.491455V302.664553c0 16.832364-13.664208 30.491455-30.507827 30.491455s-30.507828-13.659091-30.507828-30.491455v-162.620751c-0.001023-16.83441 13.664208-30.490431 30.507828-30.490431z"  horiz-adv-x="1024" />

    
    <glyph glyph-name="tubiao-" unicode="&#58895;" d="M36.434-76.923c0-0 0-0 0-0 0-27.745 205.986-50.237 460.083-50.237 254.097 0 460.083 22.492 460.083 50.237 0 0 0 0-0 0 0 27.745-205.986 50.237-460.083 50.237-254.097 0-460.083-22.492-460.083-50.237zM565.76-48.435l-440.873 26.87-1.126 56.914v647.025l35.164 28.631 606.597 0.328 64.041-36.905 0.717-353.956s-196.71 151.839-333.763-44.81c-129.311-185.59 69.243-324.096 69.243-324.096zM830.28 419.103h-25.088v23.47c0 72.049 0.041 144.077-0.041 216.125-0.041 27.423-26.358 54.231-52.756 54.252-190.484 0.102-380.969 0.123-571.474 0-25.17-0.020-52.204-27.197-52.244-52.92-0.123-208.507-0.123-437.494 0-645.98 0.041-25.354 6.717-31.56 32.358-31.601 86.569-0.082 193.638 0 280.248 0h24.248v-23.962c-6.799-0.43-14.049-1.27-21.279-1.27-87.962-0.123-175.964-0.164-263.926-0.020-52.163 0.102-77.046 25.457-77.046 78.254-0.041 208.507-0.041 416.993 0 625.5 0 51.876 25.928 77.435 78.193 77.435h571.494c52.326 0 77.23-25.027 77.251-77.844 0.102-79.647 0.061-159.212 0.061-241.439zM914.801 162.591h-22.569c-4.526 63.611-36.925 127.468-88.228 168.837-33.321 23.47-86.241 41.001-126.73 40.12-87.818-1.925-180.982-61.133-201.974-146.555-19.763-80.589-8.561-164.332 90.44-233.841 82.534-53.76 182.804-28.631 243.2 29.716-21.32 18.125-41.8 38.605-63.119 56.73l4.915 8.274h161.608v-167.997l-65.638 73.789c-57.979-50.565-120.218-73.175-191.488-65.536-57.078 6.124-105.943 30.515-145.756 72.131-75.325 78.705-86.569 199.782-27.116 291.226 59.679 91.75 174.387 130.826 276.992 94.351 93.737-33.26 156.303-144.364 155.464-221.245zM692.634 184.34c19.395 0 35.328-1.106 50.995 0.307 17.92 1.577 23.491-6.001 21.484-22.569-0.963-7.311-0.84-14.766-1.27-23.183h-115.589v136.765h44.319c0.061-29.655 0.061-58.962 0.061-91.32zM234.598 129.618v28.017h166.072v-28.017h-166.072zM234.598 58.327v28.017h166.072v-28.017h-166.072zM540.836 460.165v28.017h166.072v-28.017h-166.072zM540.836 531.497v28.017h166.072v-28.017h-166.072zM540.836 597.524v28.017h166.072v-28.017h-166.072zM325.98 475.054l66.56 150.487h34.12l-69.96-150.487h52.9v-22.671l-61.44 0.020v-33.014l59.74-0.020v-26.358l-61.44 0.020v-84.746l-40.96-0.041v80.937h-64.86v30.188h63.14v31.109h-63.14v24.576h56.32l-68.26 150.487h34.12z"  horiz-adv-x="1024" />

    
    <glyph glyph-name="Untitled-" unicode="&#58888;" d="M391.944828 179.2c-130.648276 63.558621-236.57931 151.834483-296.606897 204.8C158.896552 440.496552 282.482759 542.896552 430.786207 606.455172c-49.434483-60.027586-81.213793-137.710345-81.213793-222.455172 0-70.62069 21.186207-134.17931 56.496552-190.675862l49.434482 49.434483c-24.717241 42.372414-35.310345 88.275862-35.310345 137.710345 0 155.365517 127.117241 282.482759 282.482759 282.482758 49.434483 0 98.868966-14.124138 137.710345-35.310345L918.068966 701.793103c-67.089655 21.186207-137.710345 35.310345-211.862069 35.310345-391.944828 0-706.206897-353.103448-706.206897-353.103448s137.710345-151.834483 342.510345-257.765517l49.434483 52.965517zM1041.655172 655.889655l197.737931 197.737931L1193.489655 896 211.862069-85.627586 257.765517-128l201.268966 201.268966c77.682759-28.248276 158.896552-45.903448 243.641379-45.903449 391.944828 0 706.206897 353.103448 706.206897 353.103449s-148.303448 169.489655-367.227587 275.420689zM706.206897 101.517241c-60.027586 0-120.055172 21.186207-165.958621 52.965518L935.724138 546.427586c35.310345-45.903448 52.965517-102.4 52.965517-165.95862 0-151.834483-127.117241-278.951724-282.482758-278.951725z m271.889655 60.027587c49.434483 60.027586 81.213793 137.710345 81.213793 222.455172 0 81.213793-28.248276 155.365517-74.151724 215.393103l3.531034 3.531035c144.772414-63.558621 261.296552-162.427586 324.855173-218.924138-63.558621-60.027586-187.144828-158.896552-335.448276-222.455172z"  horiz-adv-x="1412" />

    
    <glyph glyph-name="eye-close" unicode="&#59064;" d="M811.913 60.936c-7.531 0-15.072 2.803-20.923 8.443L188.337 650.184c-11.992 11.557-12.345 30.648-0.787 42.641 11.558 11.992 30.648 12.345 42.641 0.787l602.653-580.805c11.993-11.557 12.345-30.648 0.787-42.641-5.919-6.142-13.813-9.23-21.718-9.23zM631.56 345.794a128.545 128.545 0 0 1 5.562 35.71c1.003 70.944-55.696 129.268-126.64 130.271-15.362 0.217-30.129-2.275-43.854-7.028L631.56 345.794zM385.792 420.904a128.512 128.512 0 0 1-5.58-35.769c-1.003-70.944 55.696-129.268 126.64-130.271 15.384-0.217 30.172 2.282 43.913 7.048L385.792 420.904zM415.791 553.741c33.197 6.349 67.285 9.389 101.842 8.9 144.507-2.042 281.152-66.525 374.898-176.915 0.349-0.41 0.333-1.055-0.036-1.5-46.167-55.621-102.603-99.719-165.401-130.502l48.569-46.809c63.14 34.328 120.106 81.048 166.077 136.435 20.261 24.409 20.081 59.654-0.427 83.803-51.714 60.895-114.262 109.28-185.907 143.811-74.21 35.768-153.904 54.498-236.87 55.67-54.01 0.773-106.762-5.919-157.699-19.933l54.954-52.96zM602.555 211.998a503.631 503.631 0 0 0-95.648-9.135c-2.392 0-4.811 0.017-7.207 0.051-144.506 2.041-281.151 66.524-374.898 176.915-0.349 0.411-0.333 1.057 0.036 1.502 46.36 55.854 103.085 100.084 166.207 130.884l-48.608 46.845C178.99 524.695 121.75 477.817 75.592 422.206c-20.26-24.41-20.08-59.654 0.427-83.804 51.714-60.896 114.262-109.28 185.907-143.812 74.21-35.769 153.905-54.498 236.87-55.671 2.775-0.039 5.533-0.059 8.301-0.059 51.441 0 101.711 6.797 150.325 20.26l-54.867 52.878z"  horiz-adv-x="1024" />

    
    <glyph glyph-name="jinggao" unicode="&#59062;" d="M512 831.996928c-247.412736 0-448-200.576-448-448.002048 0-247.419904 200.587264-447.990784 448-447.990784 247.431168 0 448 200.571904 448 447.990784 0 247.426048-200.568832 448.002048-448 448.002048z m-22.288384-201.660416c-0.007168 12.377088 10.028032 22.403072 22.40512 22.403072 12.367872-0.004096 22.411264-10.034176 22.411264-22.403072v-268.778496c0-12.370944-10.036224-22.395904-22.411264-22.395904-12.367872-0.009216-22.406144 10.02496-22.406144 22.4l0.001024 268.7744z m21.941248-515.257344c-37.111808 0-67.196928 30.08-67.196928 67.18976s30.08512 67.198976 67.196928 67.198976c37.107712 0 67.19488-30.089216 67.19488-67.198976s-30.088192-67.18976-67.19488-67.18976z"  horiz-adv-x="1024" />

    
    <glyph glyph-name="smile1" unicode="&#58880;" d="M724.795484 768.2941539999999c-213.031152 0-385.74772199999995-172.69764799999993-385.74772199999995-385.7477219999999 1.4210854715202004e-14-213.091359 172.71657-385.768364 385.74772199999995-385.768364 213.02943200000004 0 385.74772199999995 172.677006 385.74772199999995 385.768364C1110.5432069999997 595.5982260000001 937.824916 768.2941539999999 724.795484 768.2941539999999zM863.9819379999999 594.947991c38.260664 0 69.322295-31.080553999999996 69.322295-69.384223 0-38.322591-31.061632000000003-69.27929-69.32229500000001-69.27928999999999-38.30194899999999 0-69.36186 30.956699000000004-69.36186 69.27929C794.620078 563.8674369999999 825.679989 594.947991 863.9819379999999 594.947991zM585.648596 594.947991c38.260664 0 69.322295-31.080553999999996 69.322295-69.384223 0-38.322591-31.061632000000003-69.27929-69.32229500000001-69.27928999999999-38.30194899999999 0-69.36186 30.956699000000004-69.36186 69.27929C516.286736 563.867437 547.346647 594.9479909999999 585.648596 594.947991zM724.795484 115.49587399999996c-139.270743 0-253.50915199999997 106.660933-265.815455 242.79403299999998L990.6109389999999 358.28990699999997C978.304636 222.15508699999987 864.0662279999999 115.49587399999996 724.795484 115.49587399999996z"  horiz-adv-x="1449" />

    
    <glyph glyph-name="shouru" unicode="&#58998;" d="M567.8269631999999 760.2251850666667c-92.23585173333332 0-177.1899264-24.272593066666666-177.1899264-24.272592s-143.20829653333334 67.96325973333333-216.0260736 53.399703466666665c-75.2450368-41.26340693333333-4.8545184-92.23585173333332 29.1271104-128.64474133333334-72.81777813333333-63.10874026666667-118.93570346666667-148.06281493333333-126.21748053333334-237.87140693333333-16.990814933333333-41.26340693333333-26.699851733333333-9.7090368-46.1179264-33.981629866666665-9.7090368-12.136296533333333-31.554370133333336-111.6539264-2.427259733333333-148.06281493333333 46.1179264-41.26340693333333 72.81777813333333 4.8545184 123.79022293333334-50.97244373333333 24.272593066666666-31.554370133333336 55.8269632-58.25422186666666 92.23585173333332-82.52681493333333 9.7090368-9.7090368-26.699851733333333-26.699851733333333-9.7090368-80.09955626666667 9.7090368-19.4180736 97.09037013333334-21.845333333333333 121.36296213333333-12.136295466666667 14.5635552 12.136296533333333 0 26.699851733333333 9.709037866666668 29.1271104 7.281778133333333-2.427259733333333 12.136296533333333-4.8545184 19.4180736-7.281777066666667 9.7090368-7.281778133333333-12.136296533333333-60.6814816 29.127111466666666-58.25422293333333 14.5635552-2.427259733333333 46.1179264-2.427259733333333 80.0995552 0 19.4180736 4.8545184 12.136296533333333 33.981629866666665 19.418074666666666 33.981629866666665 19.4180736-2.427259733333333 38.83614826666667-2.427259733333333 58.25422186666666-2.427259733333333 55.8269632 0 89.80859306666666 2.427259733333333 138.35377813333335 14.563556266666666 29.127111466666666 4.8545184-12.136296533333333-36.40888853333333 12.136295466666667-43.690666666666665 9.7090368 4.8545184 97.09037013333334-12.136296533333333 114.08118506666666 9.7090368 29.127111466666666 24.272593066666666 0 99.51762986666665 24.272593066666666 111.6539264 114.08118506666666 70.3905184 145.6355552 160.19911146666666 145.6355552 283.9893333333333C1012.0154069333333 592.7442965333333 829.9709631999999 760.2251850666667 567.8269631999999 760.2251850666667zM266.84681493333335 512.6447402666666c-19.4180736 0-36.40888853333333 16.990814933333333-36.40888853333333 36.408889599999995s16.990814933333333 36.40888853333333 36.40888853333333 36.40888853333333 36.40888853333333-16.990814933333333 36.40888853333333-36.40888853333333-16.990814933333333-36.40888853333333-36.40888853333333-36.408889599999995z m611.6693333333334 0c-7.281778133333333-9.7090368-16.990814933333333-14.5635552-29.127111466666666-14.5635552-7.281778133333333 0-14.5635552 2.427259733333333-21.845333333333333 7.281778133333333-46.1179264 33.981629866666665-101.94488853333334 58.25422186666666-165.05362986666665 70.3905184-19.4180736 2.427259733333333-38.83614826666667 4.8545184-60.681480533333335 7.281778133333333-19.4180736 0-36.40888853333333 16.990814933333333-33.981629866666665 38.8361472 0 19.4180736 16.990814933333333 36.40888853333333 38.83614826666667 33.981629866666665 24.272593066666666 0 46.1179264-4.8545184 67.96325866666666-7.281777066666667 72.81777813333333-12.136296533333333 140.7810368-41.26340693333333 196.608-84.95407466666667 16.990814933333333-12.136296533333333 19.4180736-36.40888853333333 7.281778133333333-50.9724448z"  horiz-adv-x="1024" />

    
    <glyph glyph-name="web-icon-" unicode="&#59126;" d="M774.752 485.152c6.432-1.76 11.104-7.104 11.104-13.12v-394.336c0-7.456-7.2-13.728-15.712-13.728H253.856c-8.512 0-15.712 6.304-15.712 13.728V472.032c0 6.016 4.672 11.36 11.104 13.12l226.4-90.624a97.568 97.568 0 0 1 72.704 0l226.4 90.624m-1.568 32.448a17.664 17.664 0 0 1-6.688-1.312l-230.016-92.064a65.728 65.728 0 0 0-48.96 0l-230.016 92.064a17.92 17.92 0 0 1-6.688 1.312l-1.536-0.064c-24.096-2.24-43.104-21.856-43.104-45.504v-394.336c0-25.12 21.44-45.696 47.68-45.696h516.256c26.208 0 47.68 20.576 47.68 45.696V472.032c0 23.648-19.008 43.264-43.104 45.504a22.656 22.656 0 0 1-1.504 0.064z m-198.976-312.992a15.424 15.424 0 0 0 0-30.848h-46.272v-32.384c0-7.648-6.912-13.856-15.424-13.856s-15.424 6.208-15.424 13.856V173.76h-46.272a15.424 15.424 0 0 0 0 30.848h46.272v30.816h-46.272a15.424 15.424 0 0 0 0 30.848h31.648l-29.568 55.232a15.232 15.232 0 0 0 4.96 20 13.12 13.12 0 0 0 18.56-5.344l33.984-63.456a15.392 15.392 0 0 0 1.792-6.432h0.16a15.2 15.2 0 0 0 1.824 6.432l34.528 63.456a13.344 13.344 0 0 0 18.848 5.344 15.168 15.168 0 0 0 5.056-20l-30.048-55.232h31.648a15.424 15.424 0 1 0 0-30.848h-46.272v-30.816h46.272z m112.768 386.464h-33.568l-84.48 137.312a16 16 0 0 1-21.952 5.248l-282.912-174.08a16 16 0 0 1-5.248-21.984l45.888-74.592 27.232 16.736-37.504 60.992 44.416 27.328v-105.312h31.968v96.384h300.224v-96.384h31.968v112.352a16.096 16.096 0 0 1-16.032 16z m-310.752 0l173.856 106.976 65.824-106.976h-239.68z m236.672-81.824h-184.032a16 16 0 0 1 0-31.936h184.032a16 16 0 0 1 0 31.936z m0 0"  horiz-adv-x="1024" />

    
    <glyph glyph-name="shouru1" unicode="&#58887;" d="M985.2 395.1c0 27.4-12.9 51.8-32.9 67.4 2-7.5 3.1-15.5 3.1-23.6 0-25.4-10.4-48.3-27.1-64.9-34.1 141.6-199.7 249-398.9 249-54.5 0-106.4-8-153.8-22.6-16.4 36.5-50.2 61.5-89.1 61.5-11 0-16.9-54.4-17.2-109.6-64.6-40.5-112.1-95.8-133.2-158.9h-25.8c-25.3 0-46.1-20.7-46.1-46.1v-54.9c0-25.3 20.7-46.1 46.1-46.1h25.8c14.4-43.2 41.2-82.8 77.5-116.5v-109.5c0-29.4 24.1-53.5 53.5-53.5h72.4C369-33 393-9 393 20.5v14c42.6-11.4 88.5-17.6 136.4-17.6 51.4 0 100.6 7.2 145.9 20.2v-16.6c0-29.4 24.1-53.5 53.5-53.5h72.4c29.4 0 53.5 24.1 53.5 53.5V139.2c49.5 49.7 79.1 111.2 79.9 177.9 29.9 13.4 50.6 43.3 50.6 78zM985.2 395.1c0 27.4-12.9 51.8-32.9 67.4 2-7.5 3.1-15.5 3.1-23.6 0-25.4-10.4-48.3-27.1-64.9-34.1 141.6-199.7 249-398.9 249-54.5 0-106.4-8-153.8-22.6-16.4 36.5-50.2 61.5-89.1 61.5-11 0-16.9-54.4-17.2-109.6-64.6-40.5-112.1-95.8-133.2-158.9h-25.8c-25.3 0-46.1-20.7-46.1-46.1v-54.9c0-25.3 20.7-46.1 46.1-46.1h25.8c14.4-43.2 41.2-82.8 77.5-116.5v-0.9c73-24.7 154.6-38.5 240.8-38.5 201.3 0 377.8 75.4 476.7 188.6 2.2 12.4 3.5 25 3.6 37.9 29.8 13.6 50.5 43.5 50.5 78.2zM236.7 394.6a35 22.3 90 1 1 44.6 0 35 22.3 90 1 1-44.6 0ZM531.6 585c-55.2 0-100 44.9-100 100s44.9 100 100 100 100-44.9 100-100-44.8-100-100-100zM531.6 770c46.9 0 85-38.1 85-85s-38.1-85-85-85-85 38.1-85 85 38.2 85 85 85m0 30c-63.5 0-115-51.5-115-115s51.5-115 115-115 115 51.5 115 115c0.1 63.5-51.4 115-115 115z"  horiz-adv-x="1024" />

    
    <glyph glyph-name="jujue" unicode="&#58972;" d="M512-128a512 512 0 1 0 512 512 512 512 0 0 0-512-512zM384 576H256v-128h128V576z m64-320H384v-64H320v-64h64v64h256v-64h64v64h-64v64H448z m320 320h-128v-128h128V576z"  horiz-adv-x="1024" />

    
    <glyph glyph-name="gerenzhongxin" unicode="&#59004;" d="M512 384m-512 0a512 512 0 1 1 1024 0 512 512 0 1 1-1024 0ZM727.04 158.72H293.12c5.12 87.04 61.44 162.56 143.36 192-66.56 40.96-87.04 126.72-47.36 193.28 40.96 66.56 126.72 87.04 193.28 47.36 66.56-40.96 87.04-126.72 47.36-193.28-11.52-19.2-28.16-35.84-47.36-47.36 83.2-29.44 139.52-104.96 144.64-192z"  horiz-adv-x="1024" />

    
    <glyph glyph-name="start" unicode="&#58975;" d="M737.4667776 416.4304896L439.24739413 605.03545173c-28.75938133 18.23757653-52.7859712 5.60114347-52.7859712-28.63049386v-373.85120427c0-33.8624512 24.02658987-47.62064213 53.59643307-29.81451093l296.59736747 178.01980586h0.00436906c29.5665664 17.73950293 29.9401216 47.18482773 0.80718507 65.67144107z m-86.5533952-31.5293696L462.90807467 272.03283626999996v231.8336l188.00530773-118.96531627zM406.00971947 552.43516587l0.3375104-0.21408427c-0.13216427 0.0753664-0.27306667 0.1376256-0.40086187 0.21845333l0.06335147-0.00436906zM847.9637504 663.4389504000001c-0.02839893 0.03495253-0.0720896 0.05352107-0.11250347 0.0753664-7.00470613 8.77090133-17.78210133 14.39607467-29.88004693 14.39607467-21.11351467 0-38.22933333-17.11581867-38.22933333-38.22933334 0-10.17227947 3.98021973-19.4084864 10.45845333-26.2569984l-0.04805973-0.04696746C841.89184 550.97698987 872.99413333 470.84721493 872.99413333 383.45386667c0-199.06996907-161.37803093-360.448-360.448-360.448s-360.448 161.37803093-360.448 360.448 161.37803093 360.448 360.448 360.448l0.01529174 0.15837866c1.1206656-0.098304 2.25225387-0.15837867 3.3980416-0.15837866 21.11351467 0 38.22933333 17.11581867 38.22933333 38.22933333 0 19.79624107-15.0470656 36.077568-34.3277568 38.03272533l0.01856853 0.196608H512.54613333c-241.2969984 0-436.90666667-195.60966827-436.90666666-436.90666666s195.60966827-436.90666667 436.90666666-436.90666667 436.90666667 195.60966827 436.90666667 436.90666667c0 106.5353216-38.13102933 204.1643008-101.4890496 279.98508373z"  horiz-adv-x="1024" />

    
    <glyph glyph-name="bukejian" unicode="&#59153;" d="M936 348.8c14.4 22.4 14.4 49.6 0 72C809.6 608 667.2 704 512 704c-73.6 0-144-20.8-211.2-64l-83.2 83.2c-12.8 12.8-32 12.8-44.8 0s-12.8-32 0-44.8l75.2-75.2c-56-46.4-108.8-107.2-160-184-14.4-22.4-14.4-49.6 0-72C214.4 160 356.8 64 512 64c73.6 0 144 20.8 211.2 64l83.2-83.2c12.8-12.8 32-12.8 44.8 0s12.8 32 0 44.8L776 164.8c56 46.4 108.8 107.2 160 184zM512 128c-132.8 0-257.6 86.4-371.2 256 49.6 73.6 100.8 131.2 153.6 172.8l107.2-107.2C390.4 430.4 384 408 384 384c0-70.4 57.6-128 128-128 24 0 46.4 6.4 65.6 17.6l99.2-99.2C622.4 144 568 128 512 128z m16 193.6c-4.8-1.6-11.2-1.6-16-1.6-35.2 0-64 28.8-64 64 0 6.4 1.6 11.2 1.6 16l78.4-78.4z m-32 124.8c4.8 1.6 11.2 1.6 16 1.6 35.2 0 64-28.8 64-64 0-6.4-1.6-11.2-1.6-16L496 446.4z m233.6-235.2L622.4 318.4C633.6 337.6 640 360 640 384c0 70.4-57.6 128-128 128-24 0-46.4-6.4-65.6-17.6l-99.2 99.2C401.6 624 456 640 512 640c132.8 0 257.6-86.4 371.2-256-49.6-73.6-100.8-131.2-153.6-172.8z"  horiz-adv-x="1024" />

    
    <glyph glyph-name="renwu-daibanrenwu" unicode="&#58898;" d="M512 384m-512 0a512 512 0 1 1 1024 0 512 512 0 1 1-1024 0ZM393.8304 687.9232l35.2256 0 0-94.8224-35.2256 0 0 94.8224ZM411.4432 590.0288a20.48 20.48 0 0 0-20.48 20.48V670.72a20.48 20.48 0 0 0 40.96 0v-59.392a20.48 20.48 0 0 0-20.48-21.2992z m0 94.6176a14.336 14.336 0 0 1-14.336-14.336v-59.392a14.336 14.336 0 1 1 28.672 0V670.72a14.336 14.336 0 0 1-14.336 13.9264zM568.9344 687.9232l35.2256 0 0-94.8224-35.2256 0 0 94.8224ZM586.5472 590.0288a20.48 20.48 0 0 0-20.48 20.48V670.72a20.48 20.48 0 1 0 40.96 0v-59.392a20.48 20.48 0 0 0-20.48-21.2992z m0 94.6176a14.336 14.336 0 0 1-14.336-14.336v-59.392a14.5408 14.5408 0 1 1 28.8768 0V670.72a14.336 14.336 0 0 1-14.5408 13.9264zM722.1248 343.04a13.1072 13.1072 0 0 0-13.1072 12.9024V576.7168a47.5136 47.5136 0 0 1-47.3088 47.9232h-20.48a13.1072 13.1072 0 0 0-12.9024 13.1072 12.9024 12.9024 0 0 0 12.9024 12.9024h20.48a73.728 73.728 0 0 0 73.3184-73.9328v-221.5936a12.9024 12.9024 0 0 0-12.9024-12.0832zM722.1248 338.944a16.1792 16.1792 0 0 0-16.1792 16.1792V576.7168a44.6464 44.6464 0 0 1-44.2368 44.8512h-20.48a16.1792 16.1792 0 0 0 0 32.3584h20.48a77.0048 77.0048 0 0 0 76.5952-77.2096v-221.5936a16.1792 16.1792 0 0 0-16.1792-16.1792z m-81.92 308.4288a9.6256 9.6256 0 0 1-9.6256-9.6256 9.8304 9.8304 0 0 1 9.6256-9.8304h20.48a50.9952 50.9952 0 0 0 50.5856-51.2v-221.5936a9.8304 9.8304 0 0 1 19.456 0V576.7168a70.4512 70.4512 0 0 1-70.0416 70.656zM497.4592 80.0768h-160.9728a73.5232 73.5232 0 0 0-73.3184 73.728V576.7168A73.728 73.728 0 0 0 336.4864 650.24h20.48a13.1072 13.1072 0 0 0 13.1072-12.9024 13.1072 13.1072 0 0 0-13.1072-13.1072h-20.48a47.7184 47.7184 0 0 1-47.5136-47.9232v-422.5024a47.7184 47.7184 0 0 1 47.5136-47.9232h160.9728a12.9024 12.9024 0 0 0 0-25.8048zM497.4592 76.8h-160.9728a77.0048 77.0048 0 0 0-76.5952 77.0048V576.7168a77.0048 77.0048 0 0 0 76.5952 77.2096h20.48a16.1792 16.1792 0 0 0 0-32.3584h-20.48a44.6464 44.6464 0 0 1-44.2368-44.8512v-422.912a44.4416 44.4416 0 0 1 44.2368-44.6464h160.9728a16.1792 16.1792 0 0 0 0-32.3584z m-160.9728 570.5728A70.4512 70.4512 0 0 1 266.24 576.7168v-422.912a70.2464 70.2464 0 0 1 70.0416-70.4512h160.9728a9.6256 9.6256 0 1 1 0 19.2512h-160.768a50.9952 50.9952 0 0 0-49.7664 51.2V576.7168a50.9952 50.9952 0 0 0 50.7904 51.2h20.48a10.0352 10.0352 0 0 1 9.8304 9.8304 9.8304 9.8304 0 0 1-9.8304 9.6256zM532.48 624.64h-66.9696a13.1072 13.1072 0 0 0-12.9024 13.1072 12.9024 12.9024 0 0 0 12.9024 12.9024H532.48a12.9024 12.9024 0 0 0 12.9024-12.9024 13.1072 13.1072 0 0 0-12.9024-13.1072zM532.48 621.568h-66.9696a16.1792 16.1792 0 1 0 0 32.3584H532.48a16.1792 16.1792 0 0 0 0-32.3584z m-67.1744 25.8048a9.8304 9.8304 0 0 1-9.8304-9.6256 10.0352 10.0352 0 0 1 9.8304-9.8304H532.48a9.8304 9.8304 0 0 1 9.6256 9.8304 9.6256 9.6256 0 0 1-9.6256 9.6256zM627.712 486.4H370.2784a12.9024 12.9024 0 0 0 0 25.8048h257.4336a12.9024 12.9024 0 1 0 0-25.8048zM627.712 483.5328H370.2784a16.1792 16.1792 0 0 0 0 32.3584h257.4336a16.1792 16.1792 0 1 0 0-32.3584z m-257.4336 25.8048a9.6256 9.6256 0 0 1 0-19.2512h257.4336a9.6256 9.6256 0 1 1 0 19.2512zM550.0928 387.8912h-179.8144a13.1072 13.1072 0 0 0 0 26.0096h179.8144a13.1072 13.1072 0 0 0 0-26.0096zM550.0928 384h-179.8144a16.1792 16.1792 0 1 0 0 32.1536h179.8144a16.1792 16.1792 0 1 0 0-32.1536z m-179.8144 26.624a9.8304 9.8304 0 0 1 0-19.456h179.8144a9.8304 9.8304 0 1 1 0 19.456zM485.5808 272.384h-115.3024a12.9024 12.9024 0 0 0-12.9024 12.9024 13.1072 13.1072 0 0 0 12.9024 13.1072h115.3024a13.1072 13.1072 0 0 0 12.9024-13.1072 12.9024 12.9024 0 0 0-12.9024-12.9024zM485.5808 269.1072h-115.3024a16.1792 16.1792 0 0 0 0 32.3584h115.3024a16.1792 16.1792 0 0 0 0-32.3584z m-115.3024 26.0096a9.8304 9.8304 0 0 1-9.6256-9.8304 9.6256 9.6256 0 0 1 9.6256-9.6256h115.3024a9.6256 9.6256 0 0 1 9.6256 9.6256 9.8304 9.8304 0 0 1-9.6256 9.8304zM634.88 80.0768a129.4336 129.4336 0 1 0 129.4336 129.2288A129.4336 129.4336 0 0 0 634.88 80.0768z m0 232.8576a103.6288 103.6288 0 1 1 103.6288-103.6288A103.6288 103.6288 0 0 1 634.88 312.9344zM634.88 196.4032a12.9024 12.9024 0 0 0-12.9024 12.9024v75.9808a13.1072 13.1072 0 1 0 26.0096 0v-75.9808a13.1072 13.1072 0 0 0-13.1072-12.9024zM710.656 196.4032H634.88a12.9024 12.9024 0 0 0-12.9024 12.9024 13.1072 13.1072 0 0 0 12.9024 13.1072h75.776a13.1072 13.1072 0 0 0 13.1072-13.1072 13.1072 13.1072 0 0 0-13.1072-12.9024z"  horiz-adv-x="1024" />

    
    <glyph glyph-name="weibiaoti--fuben-" unicode="&#58958;" d="M172.896 641.723l469.271 108.36 152.145-658.89-469.271-108.36zM791.7 100.9c-15.5-3.6-31.1-7.2-46.6-10.8l-111.9-25.8c-45.3-10.5-90.6-20.9-135.9-31.4-39-9-78.1-18-117.1-27-12.9-3-25.7-5.9-38.6-8.9-6-1.4-12.4-2.4-18.4-4.2-0.3-0.1-0.5-0.1-0.8-0.2 4.1-2.3 8.2-4.7 12.3-7l-15.3 66c-12.1 52.5-24.2 105-36.4 157.5-14.6 63.4-29.3 126.8-43.9 190.2-12.6 54.8-25.3 109.5-37.9 164.3-4.2 18-8.3 36.1-12.5 54.1-2 8.5-3.4 17.3-5.9 25.6-0.1 0.4-0.2 0.7-0.3 1.1-2.3-4.1-4.7-8.2-7-12.3 15.5 3.6 31.1 7.2 46.6 10.8L334 668.7c45.3 10.5 90.6 20.9 135.9 31.4 39 9 78.1 18 117.1 27 12.9 3 25.7 5.9 38.6 8.9 6 1.4 12.4 2.4 18.4 4.2 0.3 0.1 0.5 0.1 0.8 0.2-4.1 2.3-8.2 4.7-12.3 7l15.3-66c12.1-52.5 24.2-105 36.4-157.5 14.6-63.4 29.3-126.8 43.9-190.2 12.6-54.8 25.3-109.5 37.9-164.3 6.1-26.5 11.3-53.4 18.4-79.7 0.1-0.4 0.2-0.7 0.3-1.1 2.9-12.5 22.2-7.2 19.3 5.3l-15.3 66c-12.1 52.5-24.2 105-36.4 157.5-14.6 63.4-29.3 126.8-43.9 190.2-12.6 54.8-25.3 109.5-37.9 164.3-6.1 26.5-11.3 53.4-18.4 79.7-0.1 0.4-0.2 0.7-0.3 1.1-1.3 5.4-7.2 8.2-12.3 7-15.5-3.6-31.1-7.2-46.6-10.8L481 723.1c-45.3-10.5-90.6-20.9-135.9-31.4-39-9-78.1-18-117.1-27-18.9-4.4-38.3-7.9-57-13.2-0.3-0.1-0.5-0.1-0.8-0.2-5.4-1.3-8.2-7.2-7-12.3l15.3-66c12.1-52.5 24.2-105 36.4-157.5 14.6-63.4 29.3-126.8 43.9-190.2 12.6-54.8 25.3-109.5 37.9-164.3 6.1-26.5 11.3-53.4 18.4-79.7 0.1-0.4 0.2-0.7 0.3-1.1 1.3-5.4 7.2-8.2 12.3-7 15.5 3.6 31.1 7.2 46.6 10.8l111.9 25.8c45.3 10.5 90.6 20.9 135.9 31.4 39 9 78.1 18 117.1 27 18.9 4.4 38.3 7.9 57 13.2 0.3 0.1 0.5 0.1 0.8 0.2 12.5 2.9 7.2 22.2-5.3 19.3zM490.9 603.7c-37.4-8.7-53.7-36.6-53.7-36.6s-26.9 18-64.3 9.3c-34.8-8-34.4-66.3-8.5-87 34-27.1 66.4-18.1 102.2-49.9 18.3 44.3 51.3 50.4 70 89.6 14.4 30.1-10.9 82.7-45.7 74.6zM488.3 613.4c-23.2-5.6-47.2-20.1-59.6-41.2 4.6 1.2 9.1 2.4 13.7 3.6-12.4 8.2-28.6 11.9-43.1 12.9-21.4 1.4-44.5-3.2-55.7-23.3-9-16-9.6-36.5-4.3-53.8 2.7-9 7.1-17.3 13.3-24.4 7.7-8.8 18.9-15.2 29.5-19.9 12.5-5.6 25.8-9 38.8-13.3 14.3-4.7 27.5-11.5 39-21.5 4.3-3.7 13-4.3 15.7 2 6.8 16.2 16.9 29.2 29.6 41.2 11.8 11.2 23.9 21.9 33.1 35.6 9 13.3 14.1 27.9 12.3 44.1-1.7 15.5-7.7 30.2-17.8 42-11.4 13.1-27.7 19.6-44.5 16-12.6-2.7-7.3-22 5.3-19.3 4.3 0.9 8.9 0.5 13-1.3 4.4-1.9 8.1-5 11.8-9.4 6.8-7.9 11.6-20.4 12.2-30.7 0.5-6.6 0-10.4-1.8-16.3-0.5-1.7-2-4.7-3.5-7.5-2.1-3.7-4.4-7.4-6.9-10.8-8.2-11.1-19.1-19.9-29-29.5-13.2-12.7-24.2-27-31.3-43.9 5.2 0.7 10.5 1.3 15.7 2-9.9 8.6-20.6 15.7-32.7 20.9-10.4 4.5-21.2 7.6-32 11-10.4 3.2-20.4 6.9-29.8 12.7-4.1 2.5-8.1 5.2-11.5 8.7-2.7 2.7-3.5 4-5.6 7.7-6.6 11.9-8.3 27.8-4.4 40.9 0.3 1 0.6 1.9 1 2.9 1.1 3-0.8-1.6 0.5 1.3 0.7 1.5 1.5 2.9 2.3 4.3 0.4 0.7 0.9 1.4 1.3 2 1 1.4-1.5-1.6 0.5 0.6 0.6 0.7 1.3 1.4 2 2.1 0.1 0.1 2.3 2 0.9 0.9 1.4 1.1 2.9 2 4.5 2.8 0.4 0.2 2.3 0.9 0.8 0.4 1 0.4 1.9 0.7 2.9 0.9 5.5 1.5 11.2 2.1 16.9 2.2 10.5 0.2 20.7-1.6 30.5-5.3 0.7-0.3 1.5-0.6 2.2-0.9 0.7-0.3 0.6-0.2-0.4 0.2 0.5-0.2 1-0.4 1.5-0.7 1.2-0.6 2.4-1.1 3.6-1.8 1.1-0.6 2.2-1.2 3.3-1.9 4.5-3 11.1-0.9 13.7 3.6 0.8 1.4 1.8 2.7 2.8 4 0.7 1-1.3-1.6-0.4-0.6 0.4 0.4 0.7 0.9 1.1 1.3 0.7 0.8 1.3 1.6 2 2.3 1.7 1.9 3.6 3.8 5.5 5.6 10 9.3 22.9 16 36.8 19.3 12.5 3 7.2 22.3-5.3 19.3zM391.4 306.9l201.2 46.5M394 297.2c22.7 5.2 45.4 10.5 68.1 15.7 36.1 8.3 72.3 16.7 108.4 25 8.3 1.9 16.5 3.8 24.8 5.7 12.5 2.9 7.2 22.2-5.3 19.3-22.7-5.2-45.4-10.5-68.1-15.7-36.1-8.3-72.3-16.7-108.4-25-8.3-1.9-16.5-3.8-24.8-5.7-12.5-2.9-7.2-22.2 5.3-19.3zM405.1 247.4l201.3 46.5M407.7 237.8c22.7 5.2 45.4 10.5 68.1 15.7 36.1 8.3 72.3 16.7 108.4 25 8.3 1.9 16.5 3.8 24.8 5.7 12.5 2.9 7.2 22.2-5.3 19.3-22.7-5.2-45.4-10.5-68.1-15.7-36.1-8.3-72.3-16.7-108.4-25-8.3-1.9-16.5-3.8-24.8-5.7-12.5-2.9-7.2-22.2 5.3-19.3zM418.8 188l201.3 46.5M421.5 178.4c22.7 5.2 45.4 10.5 68.1 15.7 36.1 8.3 72.3 16.7 108.4 25 8.3 1.9 16.5 3.8 24.8 5.7 12.5 2.9 7.2 22.2-5.3 19.3-22.7-5.2-45.4-10.5-68.1-15.7-36.1-8.3-72.3-16.7-108.4-25-8.3-1.9-16.5-3.8-24.8-5.7-12.6-2.9-7.3-22.2 5.3-19.3zM432.5 128.6l201.3 46.5M435.2 118.9c22.7 5.2 45.4 10.5 68.1 15.7 36.1 8.3 72.3 16.7 108.4 25 8.3 1.9 16.5 3.8 24.8 5.7 12.5 2.9 7.2 22.2-5.3 19.3-22.7-5.2-45.4-10.5-68.1-15.7-36.1-8.3-72.3-16.7-108.4-25-8.3-1.9-16.5-3.8-24.8-5.7-12.6-2.9-7.2-22.2 5.3-19.3zM663.4 101.2l-0.6 0.2c-3 0.8-4.8 3.9-4 6.9l8 29.7c0.8 3 3.9 4.8 6.9 4l0.6-0.2c3-0.8 4.8-3.9 4-6.9l-8-29.7c-0.8-3-3.9-4.8-6.9-4zM666.1 110.9c-2.6 0.7 1.2-7.2 2.6-4.6 0.4 0.8 0.5 2 0.8 2.9 0.9 3.5 1.9 7 2.8 10.4 1 3.7 2 7.3 3 11 0.3 1.1 0.9 2.5 1 3.7 0.4 3.7 3.2-3.4-5.1-1.9 2.8-0.5-1.3 7-2.5 4.9-0.4-0.8-0.5-2-0.8-2.8-0.9-3.4-1.8-6.8-2.8-10.3-1-3.8-2.1-7.6-3.1-11.4-0.3-1.1-0.8-2.3-0.9-3.5-0.6-4-2.3 2.6 5 1.6-5.3 0.8-10.7-1.3-12.3-7-1.3-4.7 1.6-11.5 7-12.3 8.7-1.3 16.5 2.2 19.3 11.1 0.8 2.6 1.4 5.3 2.1 7.9 1.9 7.2 4.3 14.3 5.8 21.6 1.8 8.3-2.4 17-11 19.3-8.3 2.3-16.7-2.1-19.6-10.2-2.3-6.7-3.8-13.7-5.6-20.6-0.9-3.2-1.9-6.4-2.6-9.6-1.9-8.8 2.6-17.2 11.5-19.6 12.5-3.3 17.8 16 5.4 19.4zM660.182 140.205l3.274 12.168 25.011-6.73-3.273-12.167zM687.9 143.1c-8.3 2.2-16.7 4.5-25 6.7 2.3-4.1 4.7-8.2 7-12.3 1.1 4.1 2.2 8.1 3.3 12.2-4.1-2.3-8.2-4.7-12.3-7 8.3-2.2 16.7-4.5 25-6.7-2.3 4.1-4.7 8.2-7 12.3-1.1-4.1-2.2-8.1-3.3-12.2-3.3-12.4 15.9-17.8 19.3-5.3 1.1 4.1 2.2 8.1 3.3 12.2 1.4 5.2-1.7 10.9-7 12.3-8.3 2.2-16.7 4.5-25 6.7-5.2 1.4-10.9-1.7-12.3-7-1.1-4.1-2.2-8.1-3.3-12.2-1.4-5.2 1.7-10.9 7-12.3 8.3-2.2 16.7-4.5 25-6.7 12.4-3.3 17.7 16 5.3 19.3zM657.151 155.971l3.274 12.168 38.628-10.392-3.274-12.168zM698.4 155.2c-12.9 3.5-25.7 6.9-38.6 10.4 2.3-4.1 4.7-8.2 7-12.3 1.1 4.1 2.2 8.1 3.3 12.2-4.1-2.3-8.2-4.7-12.3-7 12.9-3.5 25.7-6.9 38.6-10.4-2.3 4.1-4.7 8.2-7 12.3-1.1-4.1-2.2-8.1-3.3-12.2-3.3-12.4 15.9-17.8 19.3-5.3 1.1 4.1 2.2 8.1 3.3 12.2 1.4 5.2-1.7 10.9-7 12.3-12.9 3.5-25.7 6.9-38.6 10.4-5.2 1.4-10.9-1.7-12.3-7-1.1-4.1-2.2-8.1-3.3-12.2-1.4-5.2 1.7-10.9 7-12.3 12.9-3.5 25.7-6.9 38.6-10.4 12.4-3.4 17.7 15.9 5.3 19.3zM810.47 708.156l8.003 29.744 29.743-8.002-8.002-29.744zM842.9 709.8c-9.9 2.7-19.9 5.3-29.8 8 2.3-4.1 4.7-8.2 7-12.3 2.7 9.9 5.3 19.9 8 29.8-4.1-2.3-8.2-4.7-12.3-7 9.9-2.7 19.9-5.3 29.8-8-2.3 4.1-4.7 8.2-7 12.3-2.7-9.9-5.3-19.9-8-29.8-3.3-12.4 15.9-17.8 19.3-5.3 2.7 9.9 5.3 19.9 8 29.8 1.4 5.2-1.7 10.9-7 12.3-9.9 2.7-19.9 5.3-29.8 8-5.2 1.4-10.9-1.7-12.3-7-2.7-9.9-5.3-19.9-8-29.8-1.4-5.2 1.7-10.9 7-12.3 9.9-2.7 19.9-5.3 29.8-8 12.4-3.4 17.7 15.9 5.3 19.3zM805.82 554.798l30.422 113.083 29.744-8.002-30.423-113.083zM838.3 556.4c-9.9 2.7-19.9 5.3-29.8 8 2.3-4.1 4.7-8.2 7-12.3 8.9 33 17.7 65.9 26.6 98.9 1.3 4.7 2.5 9.5 3.8 14.2-4.1-2.3-8.2-4.7-12.3-7 9.9-2.7 19.9-5.3 29.8-8-2.3 4.1-4.7 8.2-7 12.3-8.9-33-17.7-65.9-26.6-98.9-1.3-4.7-2.5-9.5-3.8-14.2-3.3-12.4 15.9-17.8 19.3-5.3 8.9 33 17.7 65.9 26.6 98.9 1.3 4.7 2.5 9.5 3.8 14.2 1.4 5.2-1.7 10.9-7 12.3-9.9 2.7-19.9 5.3-29.8 8-5.2 1.4-10.9-1.7-12.3-7-8.9-33-17.7-65.9-26.6-98.9-1.3-4.7-2.5-9.5-3.8-14.2-1.4-5.2 1.7-10.9 7-12.3 9.9-2.7 19.9-5.3 29.8-8 12.4-3.4 17.7 15.9 5.3 19.3zM656.152 172.564l144.786 538.184 48.768-13.12L704.92 159.445zM707.6 169c-16.2 4.4-32.5 8.7-48.7 13.1 2.3-4.1 4.7-8.2 7-12.3l14.4 53.7c11.5 42.8 23 85.6 34.6 128.4 14 51.9 27.9 103.9 41.9 155.8 12 44.7 24.1 89.5 36.1 134.2 3.9 14.7 7.9 29.3 11.8 44 1.9 7 4.3 14.1 5.7 21.2 0.1 0.3 0.2 0.6 0.2 0.9-4.1-2.3-8.2-4.7-12.3-7 16.2-4.4 32.5-8.7 48.7-13.1-2.3 4.1-4.7 8.2-7 12.3l-14.4-53.7c-11.5-42.8-23-85.6-34.6-128.4-14-51.9-27.9-103.9-41.9-155.8-12-44.7-24.1-89.5-36.1-134.2-5.8-21.7-12.4-43.3-17.5-65.2-0.1-0.3-0.2-0.6-0.2-0.9-3.3-12.4 15.9-17.8 19.3-5.3l14.4 53.7c11.5 42.8 23 85.6 34.6 128.4 14 51.9 27.9 103.9 41.9 155.8 12 44.7 24.1 89.5 36.1 134.2 5.8 21.7 12.4 43.3 17.5 65.2 0.1 0.3 0.2 0.6 0.2 0.9 1.4 5.2-1.7 10.9-7 12.3-16.2 4.4-32.5 8.7-48.7 13.1-5.2 1.4-10.9-1.7-12.3-7l-14.4-53.7c-11.5-42.8-23-85.6-34.6-128.4-14-51.9-27.9-103.9-41.9-155.8-12-44.7-24.1-89.5-36.1-134.2-5.8-21.7-12.4-43.3-17.5-65.2-0.1-0.3-0.2-0.6-0.2-0.9-1.4-5.2 1.7-10.9 7-12.3 16.2-4.4 32.5-8.7 48.7-13.1 12.4-3.3 17.7 16 5.3 19.3z"  horiz-adv-x="1024" />

    
    <glyph glyph-name="shouzhangben" unicode="&#58881;" d="M238.90507-51.000023H121.980937a24.329524 24.329524 0 0 0 0 48.659048h116.924133a24.329524 24.329524 0 0 0 0-48.659048zM738.040092-51.000023H411.561615a24.329524 24.329524 0 1 0 0 48.659048h326.478477a52.694189 52.694189 0 0 1 52.634849 52.634849V717.706126a24.329524 24.329524 0 1 0 48.659048 0v-667.42412a101.388841 101.388841 0 0 0-101.293897-101.282029zM815.004465 102.99993a24.317656 24.317656 0 0 0-7.702372 47.389166l130.323173 43.44897-69.072112 190.55358a24.331898 24.331898 0 0 0 45.739505 16.615285l77.569644-214.028604a24.317656 24.317656 0 0 0-15.179249-31.39102l-153.988086-51.34123a24.198975 24.198975 0 0 0-7.690503-1.246147zM404.333966-127.964396a24.341392 24.341392 0 0 0-17.208688 7.120837L330.538365-64.256647l-56.598781-56.586912a24.317656 24.317656 0 0 0-41.538211 17.196819V24.670731a24.329524 24.329524 0 0 0 48.659048 0v-69.629911l32.281124 32.269256a24.305788 24.305788 0 0 0 34.417376 0l32.269257-32.269256v69.629911a24.329524 24.329524 0 0 0 48.659048 0v-128.341207a24.317656 24.317656 0 0 0-24.35326-24.29392zM121.933465-51.000023A101.388841 101.388841 0 0 0 20.663304 50.282006V717.706126a24.329524 24.329524 0 1 0 48.659049 0v-667.42412a52.694189 52.694189 0 0 1 52.62298-52.634849 24.329524 24.329524 0 1 0 0-48.659048zM738.040092 25.999954H121.980937a24.329524 24.329524 0 0 0 0 48.659048h616.059155a52.694189 52.694189 0 0 1 52.634849 52.634848V794.706103a52.694189 52.694189 0 0 1-52.634849 52.634849H121.980937a24.329524 24.329524 0 0 0 0 48.659048h616.059155a101.388841 101.388841 0 0 0 101.282029-101.282029v-667.435989a101.388841 101.388841 0 0 0-101.282029-101.282028zM121.933465 25.999954A101.388841 101.388841 0 0 0 20.663304 127.281982V794.706103A101.388841 101.388841 0 0 0 121.933465 895.988132a24.329524 24.329524 0 1 0 0-48.659048 52.694189 52.694189 0 0 1-52.622981-52.634849v-667.412253a52.694189 52.694189 0 0 1 52.622981-52.634848 24.329524 24.329524 0 1 0 0-48.659048zM173.322167 25.999954a24.317656 24.317656 0 0 0-24.329524 24.317656V845.999861a24.329524 24.329524 0 0 0 48.659048 0v-795.682251a24.317656 24.317656 0 0 0-24.329524-24.317656zM815.004465 154.34116A24.341392 24.341392 0 0 0 792.08724 186.847778l160.491783 449.360377-54.225169 108.462205h-76.228553a24.329524 24.329524 0 0 0 0 48.659048h91.253518a24.329524 24.329524 0 0 0 21.766023-13.45838l65.59477-131.189542a24.365128 24.365128 0 0 0 1.186806-19.060105l-164.016596-459.151526a24.35326 24.35326 0 0 0-22.905357-16.128695zM953.314842 587.810204a24.210844 24.210844 0 0 0-7.690503 1.258014l-98.39809 32.791451a24.329524 24.329524 0 0 0-15.428479 30.773881l32.80332 98.386222a24.333085 24.333085 0 0 0 46.154887-15.428478l-25.112816-75.302844 75.374053-25.136553a24.317656 24.317656 0 0 0-7.702372-47.389165zM561.051705 333.418326a24.341392 24.341392 0 0 0-11.310262 2.788994L463.341963 381.626388l-86.411349-45.419068a24.305788 24.305788 0 0 0-35.283744 25.635011l16.496604 96.202499-69.902877 68.146403a24.329524 24.329524 0 0 0 13.482117 41.538212l96.594145 14.01618 43.211608 87.550682a24.341392 24.341392 0 0 0 43.626991 0l43.19974-87.550682 96.594145-14.01618a24.329524 24.329524 0 0 0 13.482117-41.538212l-69.902877-68.146403 16.508473-96.202499a24.29392 24.29392 0 0 0-23.973483-28.483345zM463.341963 433.394868a24.270184 24.270184 0 0 0 11.310261-2.788994l54.106488-28.424005-10.33708 60.230407a24.341392 24.341392 0 0 0 7.002155 21.528662l43.769408 42.665678-60.527109 8.770496a24.400732 24.400732 0 0 0-18.312418 13.304096l-27.04731 54.818572-27.059178-54.818572a24.376996 24.376996 0 0 0-18.312417-13.304096l-60.527109-8.770496 43.769408-42.665678a24.29392 24.29392 0 0 0 7.025891-21.504926l-10.325212-60.230407 54.09462 28.424005a24.317656 24.317656 0 0 0 11.369602 2.765258z"  horiz-adv-x="1024" />

    
    <glyph glyph-name="zhichu" unicode="&#59016;" d="M808.1 610.6v40.9c0 5 4.1 9.1 9.1 9.1h33.9c11.7 0 16.4 15.2 6.8 21.8l-104.1 71.5a40.07 40.07 0 0 1-45.4 0l-104.1-71.5c-9.7-6.6-5-21.8 6.8-21.8H645c5 0 9.1-4.1 9.1-9.1v-40.9H222c-45.6 0-82.9-37.3-82.9-82.9v-346.1c0-45.6 37.3-82.9 82.9-82.9h586.1c45.6 0 82.9 37.3 82.9 82.9V527.7c0 45.6-37.3 82.9-82.9 82.9zM810.1 657.2c1.7 2.1 4.2 3.4 7.1 3.4h33.9c11.7 0 16.4 15.2 6.8 21.8l-104.1 71.5a40.07 40.07 0 0 1-45.4 0l-17.8-12.2c45-20.7 85.5-49.5 119.5-84.5zM863 589.6c10.4-16.7 19.6-34.2 27.4-52.5-2.4 20.8-12.5 39.3-27.4 52.5zM139.1 527.7v-49.5C151 525 171.2 568.5 198 607c-34-10.3-58.9-42-58.9-79.3zM139.1 181.6c0-45.6 37.3-82.9 82.9-82.9h21.2c-49.7 49.7-86.2 112.6-104.1 182.8v-99.9zM891 181.6v42.3c-20.1-47.1-49-89.5-84.6-125.2h1.7c45.6 0 82.9 37.3 82.9 82.9zM164.2 398.6c0 80 27.4 153.6 73.2 211.9H222c-8.3 0-16.4-1.3-24-3.6-26.8-38.5-47-82-58.9-128.8v-196.6c17.9-70.3 54.4-133.1 104.1-182.8h97.3c-105.2 58.7-176.3 171-176.3 299.9zM891 527.7c0 3.2-0.2 6.3-0.6 9.5-7.9 18.2-17 35.8-27.4 52.5-14.6 13-33.9 20.9-54.9 21v40.9c0 2.2 0.8 4.2 2 5.7-34.1 35.1-74.6 63.9-119.6 84.5L647.4 712c119.7-53.6 203.1-173.7 203.1-313.4 0-129-71.1-241.3-176.3-299.9h132.1c35.6 35.7 64.5 78.1 84.6 125.2l0.1 303.8zM850.5 398.6c0 139.7-83.4 259.8-203.1 313.4l-43.1-29.6s-0.1 0-0.1-0.1c14.3-6.2 28-13.5 41-21.8 3.6-0.1 6.7-2.3 8.1-5.4 75.6-52 125.2-139.1 125.2-237.8 0-159.3-129.1-288.5-288.5-288.5S201.5 258.1 201.5 417.4c0 74.3 28.1 142 74.2 193.2h-38.3c-45.9-58.4-73.2-131.9-73.2-211.9 0-129 71.1-241.3 176.3-299.9h333.8c105.1 58.6 176.2 170.9 176.2 299.8zM611 660.6H645.2c-13 8.3-26.7 15.6-41 21.8-9.6-6.7-4.9-21.8 6.8-21.8zM489.9 129c159.3 0 288.5 129.1 288.5 288.5 0 98.7-49.6 185.8-125.2 237.8 0.5-1.1 0.8-2.4 0.8-3.7v-40.9h-25.9c47.9-42.8 78.1-105.1 78.1-174.4 0-129.1-104.6-233.7-233.7-233.7S238.8 307.1 238.8 436.2c0 69.3 30.2 131.6 78.1 174.4h-41.2c-46.1-51.1-74.2-118.9-74.2-193.2 0-159.3 129.1-288.4 288.4-288.4zM238.8 436.2c0-129.1 104.6-233.7 233.7-233.7s233.7 104.6 233.7 233.7c0 69.3-30.2 131.6-78.1 174.4h-84.5c54-30.8 90.5-88.9 90.5-155.6 0-98.9-80.1-179-179-179s-179 80.1-179 179c0 66.6 36.4 124.8 90.5 155.6H317c-48-42.8-78.2-105.1-78.2-174.4zM276.1 455c0-98.9 80.1-179 179-179s179 80.1 179 179c0 66.6-36.4 124.8-90.5 155.6H366.5c-54-30.8-90.4-89-90.4-155.6z m161.6 143c68.6 0 124.3-55.6 124.3-124.3s-55.6-124.3-124.3-124.3S313.4 405 313.4 473.7 369 598 437.7 598zM313.4 473.8a124.3 124.3 0 1 1 248.6 0 124.3 124.3 0 1 1-248.6 0ZM808.1 89.7H222c-50.7 0-91.9 41.2-91.9 91.9V527.7c0 50.7 41.2 91.9 91.9 91.9h423.1v31.9l-0.1 0.1h-33.9c-9.4 0-17.3 5.8-20.1 14.8s0.5 18.2 8.2 23.4l104.1 71.5c16.9 11.6 38.7 11.6 55.6 0L863 689.8c7.7-5.3 10.9-14.5 8.1-23.5-2.8-9-10.6-14.8-20-14.8h-33.9l-0.1-0.1v-32.3c46.5-4.5 82.9-43.8 82.9-91.5v-346.1c0-50.6-41.2-91.8-91.9-91.8zM222 601.6c-40.7 0-73.9-33.2-73.9-73.9v-346.1c0-40.7 33.2-73.9 73.9-73.9h586.1c40.7 0 73.9 33.2 73.9 73.9V527.7c0 40.7-33.2 73.9-73.9 73.9h-9v49.9c0 10 8.1 18.1 18.1 18.1h33.9c1.8 0 2.5 1.1 2.8 2.1s0.3 2.3-1.1 3.3l-104.1 71.5c-10.7 7.3-24.5 7.3-35.2 0L609.4 675c-1.5-1-1.5-2.3-1.2-3.3s1-2.1 2.9-2.1H645c10 0 18.1-8.1 18.1-18.1v-49.9H222zM756.3 274.9c-3.4 0-6.2 2.8-6.2 6.2v14.6c0 2.3 1.7 4.4 4 4.8 36 6.5 55 34.9 55 65.9 0 33-17 52.9-60.2 67.9-31.1 11.2-43.8 19.1-43.8 30.7 0 10.1 7.6 20.6 31.1 20.6 16.3 0 29-3.2 38.5-6.7 7.4-2.8 15.7 1.5 17.7 9.2 1.2 4.9 2.7 10.1 3.9 14.6 1.7 6.6-1.8 13.4-8.1 15.8-9.5 3.6-20.8 6.3-36.1 7.2-2.2 0.1-4 2-4 4.2v17.3c0 5.8-4.7 10.5-10.5 10.5h-17.8c-5.8 0-10.5-4.7-10.5-10.5v-20.4c0-2-1.4-3.8-3.3-4.2-36.6-8-56.1-32.4-56.1-63.7 0-35.1 26.4-53.1 65.1-66.2 27.2-9 38.8-17.8 38.8-31.5 0-14.1-14.1-22.4-35.1-22.4-17.1 0-32.9 4-46.2 9.3-7.4 3-15.8-1.2-17.8-9-1.3-5.2-2.8-10.9-4-15.7-1.7-6.7 1.9-13.7 8.3-16.1 13-4.9 30.3-9 47.5-10.2 2.6-0.2 4.6-2.3 4.6-4.9V281c0-3.4-2.8-6.2-6.2-6.2H188.3c-10.8 0-19.5-8.8-19.5-19.5v-36c0-10.8 8.8-19.5 19.5-19.5h655.3c10.8 0 19.5 8.8 19.5 19.5v36c0 10.8-8.8 19.5-19.5 19.5h-87.3v0.1zM194.6 464.8c-9.9 0-18 8.1-18 18v16.3c0 42.4 34.5 76.9 76.9 76.9h38.6c9.9 0 18-8.1 18-18s-8.1-18-18-18h-38.6c-22.5 0-40.9-18.3-40.9-40.9v-16.3c0-9.9-8-18-18-18zM194.6 395.2c-9.9 0-18 8.1-18 18v10.5c0 9.9 8.1 18 18 18s18-8.1 18-18v-10.5c0-9.9-8-18-18-18z"  horiz-adv-x="1024" />

    
    <glyph glyph-name="smile" unicode="&#59648;" d="M955.5 641q68.5-118 68.5-257t-68.5-257Q887 9 769-59.5T512-128q-139 0-257 68.5T68.5 127Q0 245 0 384t68.5 257Q137 759 255 827.5T512 896q139 0 257-68.5T955.5 641zM314 513.5q0 24.5-17.5 42.5T254 574q-25 0-42.5-18T194 513.5q0-24.51 17.5-42T254 454q25 0 42.5 17.5t17.5 42zM676 295a36 36 0 1 1-72 0q0-38-27-65.5T512 202q-38 0-65 27.5T420 295a36 36 0 1 1-72 0q0-68 48-116.5T512 130q68 0 116 48.5T676 295z m154 218.5q0 24.5-18 42.5t-42.5 18q-24.51 0-42-18T710 513.5q0-24.51 17.5-42t42-17.5q24.5 0 42.5 17.5t18 42z"  horiz-adv-x="1024" />

    
    <glyph glyph-name="yonghu" unicode="&#58974;" d="M619.064182 391.42029c91.163561 42.401656 154.766046 133.565217 154.766046 239.569358C773.830228 777.275362 655.10559 896 508.819876 896S243.809524 777.275362 243.809524 630.989648c0-106.004141 63.602484-197.167702 154.766045-239.569358C169.606625 340.538302 0 137.010352 0-106.799172v-21.200828h1017.639752v21.200828c0 243.809524-169.606625 447.337474-398.57557 498.219462zM286.21118 630.989648C286.21118 753.954451 385.855072 853.598344 508.819876 853.598344s222.608696-99.643892 222.608695-222.608696S631.784679 408.380952 508.819876 408.380952s-222.608696 99.643892-222.608696 222.608696zM42.401656-85.598344c10.600414 248.049689 216.248447 445.217391 466.41822 445.217392s455.817805-197.167702 466.418219-445.217392H42.401656z"  horiz-adv-x="1024" />

    
    <glyph glyph-name="Eye" unicode="&#58886;" d="M704-128c-191.744 0-367.808 72.384-506.752 192.128C79.616 165.44 0 293.504 0 384c0 90.496 79.488 218.56 196.992 319.872C335.872 823.552 512 896 704 896s368.128-72.32 507.008-191.872C1328.576 602.88 1408 474.816 1408 384c0-90.752-79.552-218.88-197.248-320.128C1071.872-55.744 895.744-128 704-128z m0 128c159.424 0 306.496 60.352 423.232 160.896C1219.456 240.256 1280 337.664 1280 384c0 46.4-60.416 143.808-152.576 223.168C1010.752 707.648 863.744 768 704 768c-159.616 0-306.688-60.48-423.424-161.088C188.48 527.552 128 430.08 128 384c0-46.016 60.608-143.488 152.768-222.912C397.632 60.48 544.64 0 704 0z m0 128a256 256 0 1 0 0 512 256 256 0 0 0 0-512z m5.44 383.872a128 128 0 1 1 122.496-122.496 96 96 0 0 0-122.496 122.496z"  horiz-adv-x="1408" />

    
    <glyph glyph-name="zongshouru" unicode="&#58922;" d="M512.7 341.4m-450 0a450 450 0 1 1 900 0 450 450 0 1 1-900 0ZM649.8 512.3c14 13.5 14.4 35.9 0.8 49.9-13.5 14-35.9 14.4-49.9 0.8l-88.1-85-87.9 85c-14 13.5-36.4 13.3-49.9-0.8-13.5-14-13.3-36.4 0.8-49.9l99.1-95.7v-20.7H404c-19.5 0-35.3-15.8-35.3-35.3 0-19.6 15.8-35.3 35.3-35.3h70.6V290H404c-19.5 0-35.3-15.8-35.3-35.3s15.8-35.3 35.3-35.3h70.6v-74.2c0-19.5 15.8-35.3 35.3-35.3 19.5 0 35.3 15.8 35.3 35.3v74.2h70.6c19.6 0 35.3 15.7 35.3 35.3S635.4 290 615.8 290h-70.6v35.3h70.6c19.6 0 35.3 15.8 35.3 35.3 0 19.5-15.8 35.3-35.3 35.3h-70.6v15.2l104.6 101.2z m0 0"  horiz-adv-x="1024" />

    


  </font>
</defs>
</svg>
